<svg xmlns="http://www.w3.org/2000/svg" viewBox="0 0 521 72" role="img" aria-labelledby="title">
  <title id="title">PHONECIRCLE</title>
  <rect width="521" height="72" fill="#ffffff"/>
  <g font-family="Arial Black, Arial, Helvetica, sans-serif" font-size="49" font-weight="900">
    <text x="0" y="53" fill="#050505">PH</text>
    <g transform="translate(74 15)">
      <path d="M20 0a20 20 0 0 1 18.8 13.2h-8.7A12.6 12.6 0 0 0 9.8 9.7l4.5 4.5H0V0l4.9 4.9A20 20 0 0 1 20 0Z" fill="#050505"/>
      <path d="M20 40A20 20 0 0 1 1.2 26.8h8.7a12.6 12.6 0 0 0 20.3 3.5l-4.5-4.5H40V40l-4.9-4.9A20 20 0 0 1 20 40Z" fill="#050505"/>
      <circle cx="20" cy="20" r="6" fill="#050505"/>
    </g>
    <text x="116" y="53" fill="#050505">NE</text>
    <text x="195" y="53" fill="#07834f">CIRCLE</text>
  </g>
</svg>
